<svg xmlns="http://www.w3.org/2000/svg" viewBox="0 0 1254.18 374.37"><defs><style>.cls-1{fill:#673ab7;}</style></defs><g id="Слой_2" data-name="Слой 2"><g id="Слой_1-2" data-name="Слой 1"><polygon class="cls-1" points="550.28 268.81 531.09 268.81 477.21 184.96 472.44 190.87 472.44 268.81 456.65 268.81 456.65 105.57 472.44 105.57 472.44 165.07 517.09 105.57 537.14 105.57 487.56 172.09 550.28 268.81"/><polygon class="cls-1" points="579.57 121.35 579.57 179.3 648.9 179.3 648.9 195.08 579.57 195.08 579.57 253.03 648.9 253.03 648.9 268.81 563.78 268.81 563.78 105.57 648.9 105.57 648.9 121.35 579.57 121.35"/><path class="cls-1" d="M758,220.78A49.7,49.7,0,0,1,673,256a47.77,47.77,0,0,1-14-27.14l-.42-2.83,15.19-5.53.47,4.44a34.18,34.18,0,1,0,58.11-28.2,68.27,68.27,0,0,0-22.47-14.63c-11.55-3.86-20.84-9.26-27.63-16a36.44,36.44,0,0,1,0-51.57,36.68,36.68,0,0,1,51.82-.07,31.28,31.28,0,0,1,8.29,13l1,3.11L729.1,136.2l-1.24-3.37a21,21,0,0,0-5-7.52,20.94,20.94,0,0,0-29.43.06,20.83,20.83,0,0,0,0,29.46c4.07,4,9.85,7.79,17.18,11.23a81.26,81.26,0,0,1,32.73,19.63A47.87,47.87,0,0,1,758,220.78Z"/><polygon class="cls-1" points="860.53 105.57 860.53 268.81 844.74 268.81 844.74 198.8 786.31 198.8 786.31 268.81 770.52 268.81 770.52 105.57 786.31 105.57 786.31 183.01 844.74 183.01 844.74 105.57 860.53 105.57"/><polygon class="cls-1" points="1026.83 105.55 1026.83 268.81 1011.04 268.81 1011.04 138.04 955.07 234.9 899 138.02 899 268.81 883.21 268.81 883.24 105.57 898.4 105.57 955.07 203.63 1011.64 105.57 1026.83 105.55"/><polygon class="cls-1" points="1065.31 121.35 1065.31 179.3 1134.65 179.3 1134.65 195.08 1065.31 195.08 1065.31 253.03 1134.65 253.03 1134.65 268.81 1049.52 268.81 1049.52 105.57 1134.65 105.57 1134.65 121.35 1065.31 121.35"/><path class="cls-1" d="M1229.72,128.08c-14.22-14.28-34.2-21.78-59.43-22.29v-.22H1154.5V268.81h15.79v-.22c25.23-.51,45.21-8,59.43-22.28,16.23-16.24,24.46-36.13,24.46-59.12S1246,144.38,1229.72,128.08ZM1170.29,252.7V121.78c20.75.48,36.93,6.4,48.12,17.59a67.69,67.69,0,0,1,0,95.64C1207.22,246.27,1191,252.21,1170.29,252.7Z"/><g id="гр"><polygon class="cls-1" points="16.57 357.92 16.57 185.97 0 185.97 0 374.37 294.83 374.37 294.83 357.92 16.57 357.92"/><polygon class="cls-1" points="143.06 0 123.45 16.46 323 16.46 323 157.72 339.46 157.75 339.48 0 143.06 0"/><polygon class="cls-1" points="339.48 185.97 323 185.97 235.44 259.43 147.9 185.97 123.45 185.97 235.46 279.96 323 206.5 323 374.37 339.48 374.37 339.48 185.97"/><polygon class="cls-1" points="16.57 96.29 89.79 157.74 114.24 157.74 20.25 78.87 114.25 0 89.79 0 16.56 61.45 16.57 0 0 0 0 157.74 16.57 157.74 16.57 96.29"/></g></g></g></svg>